<svg xmlns="http://www.w3.org/2000/svg" height="24" viewBox="0 0 48 24" width="48">
  <path d="M0 0h24v24H0V0z" fill="none"/>
  <circle cx="12" cy="19" r="2" fill="#FF0000"/>
  <path d="M12 3c-1.1 0-2 .9-2 2v8c0 1.1.9 2 2 2s2-.9 2-2V5c0-1.1-.9-2-2-2z" fill="#FF0000"/>
  <path d="M24 0h24v24H24V0z" fill="none"/>
  <circle cx="18" cy="19" r="2" fill="#FF0000"/>
  <path d="M18 3c-1.1 0-2 .9-2 2v8c0 1.1.9 2 2 2s2-.9 2-2V5c0-1.1-.9-2-2-2z" fill="#FF0000"/>
  <path d="M24 0h24v24H24V0z" fill="none"/>
  <circle cx="24" cy="19" r="2" fill="#FF0000"/>
  <path d="M24 3c-1.1 0-2 .9-2 2v8c0 1.1.9 2 2 2s2-.9 2-2V5c0-1.1-.9-2-2-2z" fill="#FF0000"/>
</svg>