<svg id="Logo" xmlns="http://www.w3.org/2000/svg" viewBox="0 0 14.43 19.23"><path d="M10.32,2.38c1.43.4,2.93.86,4.47,1.39s3,1.08,4.43,1.64a9.31,9.31,0,0,1-5.47-.51A9.18,9.18,0,0,1,10.32,2.38Z" transform="translate(-4.79 -2.38)" style="fill:gray"/><path d="M10.32,2.38A5.91,5.91,0,0,0,10,4.49a9.19,9.19,0,0,0,1,3.35,7.63,7.63,0,0,1,1,2.65,4.05,4.05,0,0,1-.18,1.41A3.87,3.87,0,0,1,11,13.13a7.28,7.28,0,0,1-2.37,1.52,8.6,8.6,0,0,0-2.81,2,6.12,6.12,0,0,0-.93,1.67,1.23,1.23,0,0,0-.08.22,34,34,0,0,0,3.89,1.65,34.08,34.08,0,0,0,5,1.37,5.42,5.42,0,0,0,.37-2.1,8.77,8.77,0,0,0-1-3.35,7.63,7.63,0,0,1-1-2.65,3.82,3.82,0,0,1,.18-1.41A4,4,0,0,1,13,10.87a7.63,7.63,0,0,1,2.38-1.52,8.78,8.78,0,0,0,2.81-2,5.67,5.67,0,0,0,.91-1.6l.12-.29c-1.41-.36-2.92-.81-4.49-1.34S11.68,3,10.32,2.38Z" transform="translate(-4.79 -2.38)" style="fill:#e6e6e6"/><path d="M18.39,7a5,5,0,0,0-1.12-.42,6.06,6.06,0,0,0-2.07-.08,14.81,14.81,0,0,1-3.07.15,4.63,4.63,0,0,1-1.91-.86c.07.23.18.58.34,1,.27.72.42,1,.88,2a5.66,5.66,0,0,1,.44,1.33A4,4,0,0,1,12,11c0,1.71.33,8.09.27,8.09s0-3.37-.16-5.57a4.2,4.2,0,0,1,0-.7,3.92,3.92,0,0,1,1.26-2.35,9.33,9.33,0,0,1,1.56-.93,14,14,0,0,0,2.27-1.36A8.35,8.35,0,0,0,18.39,7Z" transform="translate(-4.79 -2.38)" style="fill:#ebcd6a"/><path d="M6.56,19.41a16.15,16.15,0,0,0,3.62-.16h0a7.28,7.28,0,0,1,3.13-.31,4.14,4.14,0,0,1,.54.22.27.27,0,0,1,.11.1l.06.09c0,.11,0,.24,0,.4s0,.37,0,.45a5.12,5.12,0,0,1-.27,1.23l-.08.18a35.87,35.87,0,0,1-3.6-.91A33.63,33.63,0,0,1,6.56,19.41Z" transform="translate(-4.79 -2.38)" style="fill:#ebcd6a"/><path d="M18.66,6.63c.12-.21.23-.44.23-.44a4,4,0,0,0,.17-.41l.16-.37L19,5.34a4.3,4.3,0,0,1-.23.59,5,5,0,0,1-1.13,1.61A10.81,10.81,0,0,1,15.53,9a11.64,11.64,0,0,0-2.39,1.4A4,4,0,0,0,12,12a4.33,4.33,0,0,0,0,2.64c.15.49.21.41.74,1.69A12,12,0,0,1,13.41,18a6.23,6.23,0,0,1,.18,2.41,5.77,5.77,0,0,1-.27,1.15l.33.1a2.76,2.76,0,0,0,.12-.32c0-.08.08-.26.13-.5A6.26,6.26,0,0,0,14,20,5.88,5.88,0,0,0,14,19c0-.17-.05-.34-.09-.54a8.46,8.46,0,0,0-.6-1.75c-.4-.92-.56-1.09-.89-2a4,4,0,0,1-.29-1.14,3.4,3.4,0,0,1,.09-1.21A3.64,3.64,0,0,1,13,10.86a3.77,3.77,0,0,1,.69-.61,7.59,7.59,0,0,1,.93-.51s.27-.13,1-.52A8.58,8.58,0,0,0,17.92,7.6,5.78,5.78,0,0,0,18.66,6.63Z" transform="translate(-4.79 -2.38)" style="opacity:0.11"/><circle cx="6.7" cy="4.81" r="0.24" style="fill:#fff;opacity:0.8"/><path d="M10.82,3.26a.26.26,0,0,0-.29.22,6.46,6.46,0,0,0,0,1.18,6.55,6.55,0,0,0,.44,2,.24.24,0,0,0,.42-.22,7.09,7.09,0,0,1-.41-2,6.51,6.51,0,0,1,0-1A.22.22,0,0,0,10.82,3.26Z" transform="translate(-4.79 -2.38)" style="fill:#fff;opacity:0.8"/></svg>